<?xml version="1.0" encoding="utf-8"?>
<!-- Generator: Adobe Illustrator 16.0.0, SVG Export Plug-In . SVG Version: 6.00 Build 0)  -->
<!DOCTYPE svg PUBLIC "-//W3C//DTD SVG 1.1//EN" "http://www.w3.org/Graphics/SVG/1.1/DTD/svg11.dtd">
<svg version="1.1" id="Layer_1" xmlns="http://www.w3.org/2000/svg" xmlns:xlink="http://www.w3.org/1999/xlink" x="0px" y="0px"
	 width="51.49px" height="67.521px" viewBox="0 0 51.49 67.521" enable-background="new 0 0 51.49 67.521" xml:space="preserve">
<path fill="#16212F" d="M35.737,11.912L42.565,0H8.926l6.928,11.912H35.737z M25.746,27.8c-10.979,0-19.879,8.892-19.879,19.86
	s8.9,19.86,19.879,19.86c10.979,0,19.879-8.893,19.879-19.86S36.726,27.8,25.746,27.8z M25.746,64.617
	c-9.29,0-16.821-7.523-16.821-16.805c0-9.282,7.531-16.806,16.821-16.806c9.289,0,16.817,7.523,16.817,16.806
	C42.563,57.094,35.035,64.617,25.746,64.617z M39.31,32.19L51.49,12.161L43.324,0.346L27.981,27.301
	C34.711,27.861,39.31,32.19,39.31,32.19z M23.458,27.148L8.167,0.346L0,12.161l11.825,20.385
	C11.825,32.546,16.119,28.124,23.458,27.148z"/>
</svg>
